<?xml version="1.0" standalone="no"?>
<!DOCTYPE svg PUBLIC "-//W3C//DTD SVG 20010904//EN"
 "http://www.w3.org/TR/2001/REC-SVG-20010904/DTD/svg10.dtd">
<svg version="1.0" xmlns="http://www.w3.org/2000/svg"
 width="560.000000pt" height="560.000000pt" viewBox="0 0 560.000000 560.000000"
 preserveAspectRatio="xMidYMid meet">
<metadata>
Created by potrace 1.11, written by Peter Selinger 2001-2013
</metadata>
<g transform="translate(0.000000,560.000000) scale(0.100000,-0.100000)"
fill="#000000" stroke="none">
<path d="M2590 4885 c-170 -25 -304 -71 -427 -145 -37 -23 -117 -60 -178 -81
-228 -82 -502 -236 -695 -391 -110 -89 -314 -299 -397 -408 -224 -297 -384
-652 -449 -994 -2 -12 -6 -32 -8 -46 -28 -143 -35 -249 -31 -465 5 -298 45
-524 140 -781 252 -685 812 -1227 1498 -1452 159 -52 353 -96 497 -111 126
-13 430 -11 550 4 710 90 1332 479 1722 1075 148 225 275 529 332 790 44 203
54 306 53 525 0 160 -17 352 -42 470 -79 381 -253 747 -501 1051 -254 314
-653 596 -1029 729 -44 16 -93 38 -110 49 -123 85 -294 153 -455 181 -82 14
-377 14 -470 0z"/>
</g>
</svg>
